<svg id="Layer_1" data-name="Layer 1" xmlns="http://www.w3.org/2000/svg" viewBox="0 0 145.18 168.03"><defs><style>.cls-1{fill:#a8cff0;}.cls-2{fill:#72b5e8;}.cls-3{fill:#d1ebff;}.cls-4{fill:#fff;}.cls-5{fill:#d62d69;}.cls-6{fill:#f76195;}.cls-7{fill:#0fbab8;}.cls-8{fill:#eb4680;}</style></defs><title>vmware_virtual_performance</title><path class="cls-1" d="M107.56,81.06a16.23,16.23,0,0,0-6.91-2.3c0-.14,0-.28,0-.43,0-20.91-14.78-46.4-33-56.93-14.66-8.46-27.07-4.65-31.38,8a32.64,32.64,0,0,0-3.44-2.34c-12-6.93-21.77-1.38-21.77,12.41s9.75,30.6,21.77,37.54l74.71,43.14c9.42,5.43,17,1.08,17-9.72S117,86.5,107.56,81.06Z"/><polygon class="cls-2" points="23.05 79.32 30.56 75.14 59.34 49.28 57.7 47.63 23.05 79.32"/><path class="cls-3" d="M137.6,118.31l-.85-.6a21.32,21.32,0,0,0,3.52-12.4c0-13.18-9-28.68-20.45-35.3a27.1,27.1,0,0,0-3.43-1.68l-.29-.12,0-.31c-2.18-22.51-17.38-46.71-36.15-57.55A35.27,35.27,0,0,0,62.24,5.19,26.71,26.71,0,0,0,47.55,9.51L47,8.63A27.82,27.82,0,0,1,62.24,4.14a36.33,36.33,0,0,1,18.2,5.3c19,10.94,34.32,35.31,36.64,58a28.22,28.22,0,0,1,3.26,1.62c11.76,6.79,21,22.69,21,36.21A22.31,22.31,0,0,1,137.6,118.31Z"/><path class="cls-2" d="M133.46,105.3c0-10.8-7.63-24-17.05-29.4a16.09,16.09,0,0,0-6.91-2.3c0-.15,0-.28,0-.43,0-20.92-14.77-46.4-33-56.93-10.24-5.91-19.15-5.12-25.42-.93l-10.53,6c-6-3.08-11.27-3.06-15-.47L11.39,29.33c3.84-1.67,8.88-1.13,14.4,2.06a32.75,32.75,0,0,1,3.45,2.34c4.3-12.69,16.71-16.5,31.37-8,18.23,10.53,33,36,33,56.93,0,.15,0,.28,0,.43a16.13,16.13,0,0,1,6.91,2.3c9.41,5.44,17,18.6,17,29.41,0,4.57-1.37,8-3.66,10l14-8.18,0,0C131.32,114.93,133.46,111,133.46,105.3Z"/><path class="cls-4" d="M101.75,84.8a16.09,16.09,0,0,0-6.91-2.3c0-.15,0-.28,0-.43,0-20.92-14.78-46.41-33-56.93-8.74-5.05-16.68-5.73-22.58-2.77C45,20.08,52.47,21,60.61,25.69c18.23,10.53,33,36,33,56.93,0,.15,0,.28,0,.43a16.13,16.13,0,0,1,6.91,2.3c9.41,5.44,17,18.6,17,29.41,0,5.46-2,9.27-5.1,11,3.87-1.35,6.35-5.4,6.35-11.56C118.8,103.4,111.17,90.23,101.75,84.8Z"/><path class="cls-4" d="M25.79,31.39a32.75,32.75,0,0,1,3.45,2.34c.13-.4.27-.78.42-1.15A28.31,28.31,0,0,0,27,30.84c-5.84-3.37-11.13-3.79-15-1.76C15.76,27.72,20.56,28.37,25.79,31.39Z"/><path class="cls-3" d="M100.51,85.35a16.13,16.13,0,0,0-6.91-2.3c0-.15,0-.28,0-.43,0-20.92-14.78-46.4-33-56.93C46,17.23,33.54,21,29.24,33.73a32.75,32.75,0,0,0-3.45-2.34C13.77,24.45,4,30,4,43.8c0,12.66,8.21,27.86,18.86,35.64L57.7,47.63l35,72.31,7.85,4.54c9.41,5.43,17,1.08,17-9.72S109.92,90.79,100.51,85.35Z"/><path class="cls-5" d="M48.56,135.78l19.31,11.15V139L48.56,127.86Zm0,6.43,19.31,11.15V150L48.56,138.82Zm0-57v40l19.31,11.16v-40l13.74,7.93L58.22,55.86,34.82,77.24Z"/><polygon class="cls-5" points="79.26 105.57 81.61 104.26 58.22 55.86 55.81 57.51 79.26 105.57"/><polygon class="cls-5" points="65.52 154.68 67.87 153.37 67.87 149.97 65.52 151.28 65.52 154.68"/><polygon class="cls-5" points="65.52 148.25 67.87 146.93 67.87 139.01 65.52 140.32 65.52 148.25"/><polygon class="cls-5" points="65.52 137.64 67.87 136.32 67.87 96.33 65.52 97.64 65.52 137.64"/><polygon class="cls-6" points="46.21 140.13 48.56 138.82 67.87 149.97 65.52 151.28 46.21 140.13"/><polygon class="cls-6" points="46.21 129.24 48.56 127.92 67.87 139.07 65.52 140.39 46.21 129.24"/><path class="cls-7" d="M77.14,159.84a.52.52,0,0,1-.52-.53v-2a.52.52,0,0,1,1,0v2A.52.52,0,0,1,77.14,159.84Zm0-5.16a.52.52,0,0,1-.52-.52v-2.1a.52.52,0,0,1,1,0v2.1A.52.52,0,0,1,77.14,154.68Zm0-5.23a.52.52,0,0,1-.52-.53v-2.09a.52.52,0,1,1,1,0v2.09A.52.52,0,0,1,77.14,149.45Zm0-5.24a.52.52,0,0,1-.52-.52V141.6a.52.52,0,1,1,1,0v2.09A.52.52,0,0,1,77.14,144.21Zm0-5.23a.52.52,0,0,1-.52-.52v-2.1a.52.52,0,0,1,1,0v2.1A.52.52,0,0,1,77.14,139Zm0-5.24a.52.52,0,0,1-.52-.52v-2.09a.52.52,0,1,1,1,0v2.09A.52.52,0,0,1,77.14,133.74Zm0-5.23a.52.52,0,0,1-.52-.52v-2.1a.52.52,0,0,1,1,0V128A.52.52,0,0,1,77.14,128.51Zm0-5.23a.52.52,0,0,1-.52-.53v-2.09a.52.52,0,1,1,1,0v2.09A.52.52,0,0,1,77.14,123.28Z"/><path class="cls-7" d="M71.85,165.65l-32-18.46V132.42a.53.53,0,0,1,.53-.53.52.52,0,0,1,.52.53v14.16l29.89,17.26V107.71a.52.52,0,1,1,1,0Z"/><path class="cls-8" d="M46.21,137.09l19.31,11.15v-7.92L46.21,129.17Zm0,6.44,19.31,11.15v-3.4L46.21,140.13Zm0-57v40l19.31,11.15v-40l13.74,7.93L55.86,57.18,32.47,78.56Z"/><path class="cls-7" d="M73,113.07a.51.51,0,0,1-.5-.38l-1.14-3.79-1.19,3a.53.53,0,0,1-.68.29.52.52,0,0,1-.29-.68l1.74-4.36a.5.5,0,0,1,.51-.33.54.54,0,0,1,.48.37l1.57,5.23a.54.54,0,0,1-.35.66Z"/><path class="cls-7" d="M41.91,132.2c0,.94-.66,1.32-1.48.84A3.27,3.27,0,0,1,39,130.49c0-.94.67-1.32,1.48-.84A3.24,3.24,0,0,1,41.91,132.2Z"/></svg>