<svg xmlns="http://www.w3.org/2000/svg" xmlns:xlink="http://www.w3.org/1999/xlink" viewBox="0 0 868 276"><defs><style>.cls-1{isolation:isolate;}.cls-2{fill:#efefef;}.cls-3{fill:#2b2b2b;}.cls-4{fill:url(#linear-gradient);}.cls-5{fill:url(#linear-gradient-2);}.cls-6{fill:url(#linear-gradient-3);}.cls-7{fill:url(#linear-gradient-4);}.cls-8{opacity:0.45;mix-blend-mode:screen;fill:url(#linear-gradient-5);}</style><linearGradient id="linear-gradient" x1="6.25" y1="187.72" x2="158.86" y2="89.18" gradientUnits="userSpaceOnUse"><stop offset="0" stop-color="#ff0"/><stop offset="0.88" stop-color="#6cb33e"/></linearGradient><linearGradient id="linear-gradient-2" x1="19.69" y1="166.44" x2="196.92" y2="166.44" gradientUnits="userSpaceOnUse"><stop offset="0" stop-color="#ff0"/><stop offset="1" stop-color="#6cb33e"/></linearGradient><linearGradient id="linear-gradient-3" x1="43.16" y1="266.68" x2="137.1" y2="172.73" gradientUnits="userSpaceOnUse"><stop offset="0" stop-color="#0094d3"/><stop offset="1" stop-color="#003d79"/></linearGradient><linearGradient id="linear-gradient-4" x1="37.19" y1="241.68" x2="149.44" y2="129.43" gradientUnits="userSpaceOnUse"><stop offset="0" stop-color="#6cb33e"/><stop offset="1" stop-color="#0094d3"/></linearGradient><linearGradient id="linear-gradient-5" x1="27.65" y1="-11.68" x2="108.49" y2="-63.88" gradientTransform="matrix(0.92, -0.38, 0.3, 0.72, 6.44, 180.99)" gradientUnits="userSpaceOnUse"><stop offset="0" stop-color="#ff0"/><stop offset="0.88" stop-color="#8cc63f"/></linearGradient></defs><title>vmware_services_logo</title><g class="cls-1"><g id="Layer_1" data-name="Layer 1"><image width="1785" height="750" transform="translate(303 -15) scale(0.15)" xlink:href="../../AppData/Local/Temp/Rar$DRa10992.2470/Optum(R)_4C.png"/><g id="g166"><g id="g172"><path id="path174" class="cls-2" d="M490.14,185.53l-28.46-79.27a12.8,12.8,0,0,1-.91-3.81,6.89,6.89,0,0,1,7.06-6.7c3.63,0,6,2.36,7.08,5.79l23.59,68.31,23.76-68.5c1.08-3.25,3.26-5.6,6.87-5.6h.73c3.82,0,6.18,2.35,7.26,5.6l23.56,68.5,24-68.67c.91-2.91,2.89-5.43,6.71-5.43a6.69,6.69,0,0,1,6.89,6.52,13.36,13.36,0,0,1-.91,3.81l-28.64,79.45c-1.47,4.15-4.36,6.33-7.63,6.33h-.54c-3.63,0-6.36-2.18-7.63-6.33l-23.38-67.36-23.59,67.36c-1.27,4.15-4,6.33-7.61,6.33h-.38c-3.44,0-6.33-2.18-7.79-6.33"/></g><g id="g176"><path id="path178" class="cls-2" d="M697.64,102.66a7.05,7.05,0,0,1,6.89-7.09,7,7,0,0,1,7.09,7.09v16.09c6.9-15.63,22.2-23,32.33-23a6.73,6.73,0,0,1,6.93,7.08,6.93,6.93,0,0,1-6.2,7.08c-18.17,2.18-33,15.81-33,42.89v31.85a7,7,0,1,1-14,0v-82Z"/></g><g id="g180"><path id="path182" class="cls-2" d="M795.76,192.61c-25.29,0-45.93-19.61-45.93-48.37v-.37c0-26.79,18.69-48.37,44.15-48.37,27.22,0,42.72,22.46,42.72,47.11a6.45,6.45,0,0,1-6.42,6.49H763.73c1.94,20.12,16,31.45,32.39,31.45,11.4,0,19.74-4.5,26.52-10.79a5.91,5.91,0,0,1,10,4.34,5.92,5.92,0,0,1-2.15,4.48c-8.71,8.44-19.05,14-34.7,14M823,138.85c-1.43-16.92-11-31.65-29.38-31.65-16,0-28.13,13.48-29.88,31.65Z"/></g><g id="g184"><path id="path186" class="cls-2" d="M598.49,163.5v-.36c0-19.74,16.3-30.26,40-30.26a99.08,99.08,0,0,1,28.82,4V133.6c0-16.83-10.36-25.53-27.91-25.53-9.42,0-14.9,1.2-21.8,4.27a7.09,7.09,0,0,1-2.51.55,6.22,6.22,0,0,1-6.18-6,5.77,5.77,0,0,1,3.82-5.81c9.22-4,16.17-5.33,28.12-5.33,13.21,0,23.36,3.43,30.23,10.32,6.35,6.34,9.61,15.39,9.61,27.35v51.67A6.63,6.63,0,0,1,674,192a6.4,6.4,0,0,1-6.66-6.52v-8.93c-6.53,8.53-17.41,16.12-33.86,16.12-17.4,0-35-10-35-29.16m69-7.25v-9.06a98.33,98.33,0,0,0-27.54-4c-17.55,0-27.34,7.61-27.34,19.38V163c0,11.77,10.85,18.65,23.55,18.65,17.19,0,31.33-10.51,31.33-25.35"/></g><g id="g188"><path id="path190" class="cls-2" d="M236.42,101.63A13.21,13.21,0,0,0,218.69,95a13,13,0,0,0-6.49,17.73l29.72,64.6c4.67,10.13,9.6,15.44,18.84,15.44,9.88,0,14.19-5.78,18.86-15.44,0,0,25.92-56.44,26.18-57a3.73,3.73,0,0,1,3.73-2.4,4.13,4.13,0,0,1,4.11,4.18v55.2c0,8.51,4.72,15.49,13.8,15.49s14-7,14-15.49V132.12c0-8.71,6.24-14.37,14.75-14.37s14.17,5.86,14.17,14.37v45.17c0,8.51,4.74,15.49,13.8,15.49s14-7,14-15.49V132.12c0-8.71,6.22-14.37,14.73-14.37S427,123.61,427,132.12v45.17c0,8.51,4.73,15.49,13.8,15.49s14-7,14-15.49V125.88c0-18.89-15.19-32.13-33.48-32.13s-29.69,12.64-29.69,12.64C385.58,98.51,377.2,93.77,363,93.77c-15,0-28,12.62-28,12.62-6.09-7.88-16.44-12.62-25-12.62-13.26,0-23.79,5.83-30.22,20.52l-19,44.74Z"/></g><g id="g192"><path id="path194" class="cls-2" d="M837.83,107.23v-.08A11.59,11.59,0,1,1,861,107.1v.05a11.66,11.66,0,0,1-11.6,11.67,11.54,11.54,0,0,1-11.57-11.59m20.94-.08v0a9.31,9.31,0,0,0-9.37-9.46,9.41,9.41,0,0,0-9.38,9.49v.06a9.38,9.38,0,1,0,18.75-.06"/></g><g id="g196"><path id="path198" class="cls-2" d="M845,102.57a1.24,1.24,0,0,1,1.25-1.24h3.86a4.41,4.41,0,0,1,3.28,1.14,3.48,3.48,0,0,1,1,2.56v0a3.44,3.44,0,0,1-2.24,3.41l1.71,2.08a1.47,1.47,0,0,1,.4,1,1.15,1.15,0,0,1-1.17,1.13,1.54,1.54,0,0,1-1.22-.63l-2.4-3.05h-2v2.45a1.21,1.21,0,0,1-1.23,1.23,1.23,1.23,0,0,1-1.24-1.23v-8.84Zm5,4.21c1.21,0,1.87-.63,1.87-1.59v0c0-1-.71-1.61-1.91-1.61h-2.46v3.23h2.5Z"/></g></g><path class="cls-3" d="M217.91,253.37a5.29,5.29,0,0,1,7.62-.81c2.64,2.24,7.22,4.57,11.18,4.47a13.54,13.54,0,0,0,6.91-1.93c1.42-1.22,1.82-2.23,1.82-3a1.5,1.5,0,0,0-.3-1c-.1-.31-.51-.71-1.32-1.22-1.42-1-4.47-2.14-8.13-2.85h-.1a39,39,0,0,1-8.84-2.64,17,17,0,0,1-7-5.89A12.29,12.29,0,0,1,218,232a14.29,14.29,0,0,1,6-11.18,21.89,21.89,0,0,1,12.49-3.76c7,0,12,3.36,15.24,5.59a5.62,5.62,0,0,1,1.63,7.52,5.38,5.38,0,0,1-7.52,1.42c-3.25-2.13-6.09-3.76-9.35-3.76a10.37,10.37,0,0,0-6.09,1.83,3.12,3.12,0,0,0-1.63,2.34,1.05,1.05,0,0,0,.21.81,2.74,2.74,0,0,0,1.11,1,20.85,20.85,0,0,0,7.42,2.44l.1.1h.1a36.51,36.51,0,0,1,9.45,2.94,15.74,15.74,0,0,1,7.21,6,13.14,13.14,0,0,1,1.93,6.7,14.65,14.65,0,0,1-6.4,11.79,23.07,23.07,0,0,1-13.2,4.06c-7.93-.1-14-3.76-18.09-7A5.43,5.43,0,0,1,217.91,253.37Z"/><path class="cls-3" d="M276.93,242.5c.11-13.81,10.87-25.4,24.79-25.4,13.21,0,23.67,9.86,24.49,23.57v.51a2.64,2.64,0,0,1-.11.92c-.3,2.44-2.43,4.06-5.28,4.06h-32.3a13.26,13.26,0,0,0,3.45,6.71,15.79,15.79,0,0,0,9.75,4.57c3.66.3,8-.61,10.57-2.54,2.13-2.24,6.3-1.93,7.62-.31,1.32,1.42,2.33,4.47,0,6.61-5,4.57-11,6.7-18.19,6.7C287.8,267.8,277,256.32,276.93,242.5Zm11.08-5h28.75c-1-4.07-6.2-10.06-15-10.77C293.09,227.16,288.82,233.36,288,237.53Z"/><path class="cls-3" d="M381.67,222.49a5.42,5.42,0,0,1-5.38,5.38,9.73,9.73,0,0,0-6.1,1.93,15.34,15.34,0,0,0-4.67,4.88,31.24,31.24,0,0,0-4.17,8.53v19.31a5.53,5.53,0,0,1-5.59,5.38,5.42,5.42,0,0,1-5.38-5.38v-40a5.33,5.33,0,0,1,5.38-5.28,5.44,5.44,0,0,1,5.59,5.28v.71a13.17,13.17,0,0,1,2.14-2,22.17,22.17,0,0,1,12.8-4A5.27,5.27,0,0,1,381.67,222.49Z"/><path class="cls-3" d="M445.26,225.23,428.6,264.65a2.11,2.11,0,0,1-.4.71.1.1,0,0,1-.1.1c-.21.21-.41.51-.61.71a.11.11,0,0,1-.11.11,3.51,3.51,0,0,1-.61.61.1.1,0,0,0-.1.1,1.88,1.88,0,0,1-.71.51h-.2v.1a1.89,1.89,0,0,0-.81.2h-.21a3.82,3.82,0,0,1-1,.1,3.58,3.58,0,0,1-.92-.1h-.2a2.47,2.47,0,0,0-.81-.2v-.1h-.21c-.3-.11-.5-.31-.91-.51a.1.1,0,0,0-.1-.1,3.51,3.51,0,0,1-.61-.61c-.1,0-.1,0-.21-.11a3.31,3.31,0,0,0-.5-.71c-.11,0-.11,0-.11-.1-.2-.1-.3-.4-.4-.71l-16.46-39.42a5.15,5.15,0,0,1,2.95-6.91c2.43-1.22,5.58.21,6.8,3l11.69,27.63,11.78-27.63a5.26,5.26,0,1,1,9.75,4Z"/><path class="cls-3" d="M485.49,204.41A5.49,5.49,0,0,1,480,210a5.55,5.55,0,0,1-5.48-5.58v-2.14a5.46,5.46,0,0,1,5.48-5.48,5.4,5.4,0,0,1,5.49,5.48Zm0,18.38v39.63A5.4,5.4,0,0,1,480,267.9a5.46,5.46,0,0,1-5.48-5.48V222.79a5.42,5.42,0,0,1,5.48-5.58A5.36,5.36,0,0,1,485.49,222.79Z"/><path class="cls-3" d="M509.56,242.6c0-14.12,11.79-25.39,25.81-25.5a26.8,26.8,0,0,1,16.15,5.59,5.59,5.59,0,0,1,1.12,7.52,5.42,5.42,0,0,1-7.62,1,16.2,16.2,0,0,0-9.65-3.25c-8.23,0-15,6.8-15,14.62s6.81,14.53,15,14.53a16.43,16.43,0,0,0,9.65-3.25,5.53,5.53,0,0,1,7.62,1.12,5.62,5.62,0,0,1-1.12,7.52,28,28,0,0,1-16.15,5.38C521.35,267.9,509.56,256.52,509.56,242.6Z"/><path class="cls-3" d="M576.2,242.5c.11-13.81,10.87-25.4,24.79-25.4,13.21,0,23.67,9.86,24.49,23.57v.51a2.89,2.89,0,0,1-.1.92c-.31,2.44-2.44,4.06-5.29,4.06h-32.3a13.26,13.26,0,0,0,3.45,6.71,15.79,15.79,0,0,0,9.75,4.57c3.66.3,8-.61,10.57-2.54,2.13-2.24,6.3-1.93,7.62-.31,1.32,1.42,2.33,4.47,0,6.61-5,4.57-11,6.7-18.19,6.7C587.07,267.8,576.31,256.32,576.2,242.5Zm11.08-5H616c-1-4.07-6.2-10.06-15-10.77C592.36,227.16,588.09,233.36,587.28,237.53Z"/><path class="cls-3" d="M649.35,253.37a5.28,5.28,0,0,1,7.61-.81c2.65,2.24,7.22,4.57,11.18,4.47a13.54,13.54,0,0,0,6.91-1.93c1.42-1.22,1.83-2.23,1.83-3a1.45,1.45,0,0,0-.31-1c-.1-.31-.51-.71-1.32-1.22a23.42,23.42,0,0,0-8.12-2.85H667a39.11,39.11,0,0,1-8.84-2.64,17,17,0,0,1-7-5.89,12.38,12.38,0,0,1-1.72-6.4,14.28,14.28,0,0,1,6-11.18,21.92,21.92,0,0,1,12.5-3.76c7,0,12,3.36,15.24,5.59a5.62,5.62,0,0,1,1.62,7.52,5.37,5.37,0,0,1-7.52,1.42c-3.25-2.13-6.09-3.76-9.34-3.76a10.4,10.4,0,0,0-6.1,1.83,3.1,3.1,0,0,0-1.62,2.34,1.09,1.09,0,0,0,.2.81,2.79,2.79,0,0,0,1.12,1,20.79,20.79,0,0,0,7.41,2.44l.1.1h.11a36.56,36.56,0,0,1,9.44,2.94,15.77,15.77,0,0,1,7.22,6,13.14,13.14,0,0,1,1.93,6.7,14.68,14.68,0,0,1-6.4,11.79,23.12,23.12,0,0,1-13.21,4.06c-7.92-.1-14-3.76-18.08-7A5.42,5.42,0,0,1,649.35,253.37Z"/><path class="cls-4" d="M31.39,189.72c17.93,5.77,35.36,1.63,51.61-9.8,10.23-7.2,19-16.13,27.76-25.07s18.69-17.54,30.84-20.52a39.45,39.45,0,0,1,26.68,3A87,87,0,0,0,7,168.26C14.36,184.36,31.39,189.72,31.39,189.72Z"/><path class="cls-5" d="M30.58,196.22c18,6.7,36,3.25,53.12-7.68,10.77-6.89,20.15-15.61,29.48-24.35s19.86-17.07,32.4-19.56a40.25,40.25,0,0,1,28.67,5.2,85.65,85.65,0,0,0-6-12.48,39.45,39.45,0,0,0-26.68-3c-12.15,3-22.09,11.57-30.84,20.52S93.23,172.72,83,179.92c-16.25,11.43-33.68,15.57-51.61,9.8,0,0-17-5.36-24.42-21.46-.22,1.49-.4,3-.54,4.49C13.13,189.87,30.58,196.22,30.58,196.22Z"/><path class="cls-6" d="M151.11,195.93c-9.7,2.25-18.3,7.8-26.25,13.82s-15.51,12.63-24.21,17.49a71.4,71.4,0,0,1-89.23-16,87,87,0,0,0,166.31-10.36C170.49,195.07,160.21,193.83,151.11,195.93Z"/><path class="cls-7" d="M174.25,149.83a40.25,40.25,0,0,0-28.67-5.2c-12.54,2.49-23.07,10.81-32.4,19.56S94.47,181.65,83.7,188.54c-17.09,10.93-35.08,14.38-53.12,7.68,0,0-17.45-6.35-24.15-23.47-.25,2.72-.4,5.47-.4,8.25a86.88,86.88,0,0,0,5.39,30.2,71.4,71.4,0,0,0,89.23,16c8.7-4.86,16.27-11.47,24.21-17.49s16.55-11.57,26.25-13.82c9.1-2.1,19.38-.86,26.62,4.91a86.85,86.85,0,0,0-3.48-51Z"/><path class="cls-8" d="M42.86,159.83C53,158.32,61.21,153,67.64,145A108.74,108.74,0,0,0,77.73,129.2c3-5.4,6.67-10.91,12.4-14.66l.12-.08c4.79-3.1,4.23-8.8-1-9.62a57.23,57.23,0,0,0-30.58,4c-18.6,7.7-30.87,23.16-32.31,38.48-.74,7.88,6.5,13.59,16,12.59Z"/></g></g></svg>