<svg xmlns="http://www.w3.org/2000/svg" viewBox="0 0 149.67 161.81"><defs><style>.cls-1{isolation:isolate;}.cls-2{fill:#72b5e8;}.cls-3{fill:#a8cff0;}.cls-4{fill:#d1ebff;}.cls-5,.cls-7{mix-blend-mode:color-dodge;}.cls-6,.cls-7{fill:#fff;}.cls-8{fill:#f76195;}.cls-9{fill:#eb4680;}.cls-10{fill:#3ecfcd;}.cls-11{fill:#0ba19f;}.cls-12{fill:#03336e;}.cls-13{fill:#084c94;}.cls-14{fill:#1568bf;}.cls-15{fill:#0fbab8;}</style></defs><title>vmware_engineering</title><g class="cls-1"><g id="Layer_1" data-name="Layer 1"><path class="cls-2" d="M52.78,107C45.12,102.55,38.9,91.83,38.9,83c0-3.27.86-5.79,2.33-7.46-4.21.3-7,3.82-7,9.77,0,8.8,6.21,19.52,13.88,24,4.82,2.78,9,2.4,11.54-.44A12.1,12.1,0,0,1,52.78,107Z"/><path class="cls-3" d="M66.28,104.08a26,26,0,0,0-.24-3.37l5.62-.71a50.84,50.84,0,0,0-2.55-8.5l-6.39-1.93a45.63,45.63,0,0,0-4-6.87l1.53-6.45a51,51,0,0,0-6.13-6.46L50.7,74.25a26.17,26.17,0,0,0-2.81-1.9A20,20,0,0,0,45.07,71l-3.44-8.43A17,17,0,0,0,35.5,62L37,70.17a8.82,8.82,0,0,0-4,2.27L26.66,67a16.75,16.75,0,0,0-2.54,5.56l5.61,7.19a21.66,21.66,0,0,0-.24,3.1,27.53,27.53,0,0,0,.24,3.36l-5.61.71a50.24,50.24,0,0,0,2.54,8.5l6.4,1.93a43.53,43.53,0,0,0,4,6.87l-1.54,6.46a51.54,51.54,0,0,0,6.13,6.45l3.44-4.45a29.63,29.63,0,0,0,2.82,1.9,22.36,22.36,0,0,0,2.81,1.35l3.44,8.43a17,17,0,0,0,6.13.61l-1.53-8.22a8.83,8.83,0,0,0,4-2.27l6.39,5.45a16.57,16.57,0,0,0,2.55-5.56L66,107.17A20.07,20.07,0,0,0,66.28,104.08Zm-18.22,5.21c-7.67-4.43-13.88-15.15-13.88-24S40.39,73,48.06,77.42,62,92.57,62,101.37,55.73,113.72,48.06,109.29Z"/><polygon class="cls-2" points="50.45 67.91 47.01 59.48 41.63 62.57 45.07 71 50.45 67.91"/><path class="cls-4" d="M45.07,71a20,20,0,0,1,2.82,1.35,26.17,26.17,0,0,1,2.81,1.9l3.44-4.46h0l-.87-.53a21.16,21.16,0,0,0-2.82-1.35Z"/><path class="cls-4" d="M47,59.48a17,17,0,0,0-6.13-.62L35.5,62a17,17,0,0,1,6.13.62Z"/><path class="cls-4" d="M65.65,73.16a51,51,0,0,0-6.13-6.46l-5.38,3.09a51,51,0,0,1,6.13,6.46Z"/><polygon class="cls-2" points="60.27 76.25 58.74 82.7 64.11 79.61 65.65 73.16 60.27 76.25"/><path class="cls-2" d="M58.74,82.7a45.63,45.63,0,0,1,4,6.87l5.38-3.09a45.63,45.63,0,0,0-4-6.87Z"/><polygon class="cls-4" points="62.72 89.57 69.11 91.5 74.49 88.41 68.1 86.48 62.72 89.57"/><path class="cls-2" d="M69.11,91.5a50.84,50.84,0,0,1,2.55,8.5L77,96.91a50.84,50.84,0,0,0-2.55-8.5Z"/><path class="cls-2" d="M37,70.17l-.45-2.39L32,63.9,26.66,67l6.4,5.45A8.82,8.82,0,0,1,37,70.17Z"/><path class="cls-2" d="M71.66,114.36a16.57,16.57,0,0,1-2.55,5.56l5.38-3.09A16.57,16.57,0,0,0,77,111.27Z"/><path class="cls-2" d="M71.42,104.08a21.41,21.41,0,0,0,.24-3.09c0-.33,0-.66,0-1l-5.58.7a26,26,0,0,1,.24,3.37,20.07,20.07,0,0,1-.24,3.09Z"/><polygon class="cls-4" points="66.04 107.17 71.66 114.36 77.04 111.27 71.42 104.08 66.04 107.17"/><path class="cls-2" d="M62.72,114.47a8.83,8.83,0,0,1-4,2.27L60.27,125l5.38-3.09L64.56,116Z"/><path class="cls-4" d="M29.53,83.74l-5.41,3.17,5.61-.71C29.62,85.37,29.56,84.55,29.53,83.74Z"/><path class="cls-2" d="M45.07,112.67l-3.44,4.45L47.05,114C46.38,113.61,45.72,113.16,45.07,112.67Z"/><g class="cls-5"><path class="cls-6" d="M36.38,70.55v-.09c-.26.1-.51.22-.75.34A6.75,6.75,0,0,1,36.38,70.55Z"/><path class="cls-6" d="M29.05,86.3l-4.66.59a2.61,2.61,0,0,0,.06.27l4.62-.59C29.06,86.48,29.06,86.39,29.05,86.3Z"/><path class="cls-6" d="M60,76.6l-1.54,6.45a44.85,44.85,0,0,1,4,6.87l6.39,1.93a51.22,51.22,0,0,1,2.48,8.23l.64-.1a50.29,50.29,0,0,0-2.55-8.5L63,89.54a45.53,45.53,0,0,0-4-6.86l1.53-6.46a51.54,51.54,0,0,0-6.13-6.45l-.21.71A51.76,51.76,0,0,1,60,76.6Z"/><path class="cls-6" d="M48.11,109.19c-7.67-4.43-13.89-15.16-13.89-24,0-3.88,1.22-6.73,3.24-8.33-2.33,1.5-3.76,4.5-3.76,8.71,0,8.8,6.21,19.52,13.88,24,3.87,2.24,7.37,2.44,9.89,1l-.57.13C54.5,111.52,51.45,111.11,48.11,109.19Z"/><path class="cls-6" d="M59.77,116.46A8.53,8.53,0,0,0,62.3,115l-.24-.2A8.9,8.9,0,0,1,59.77,116.46Z"/><path class="cls-6" d="M32.85,72.59c-.23,0,0-.18.24-.37L26.93,67c-.17.24-.33.5,0,.53Z"/><path class="cls-7" d="M58.58,117.11,60.05,125c-.17,0,.17,0,.49,0L59,116.8C58.72,116.92,58.4,117,58.58,117.11Z"/><path class="cls-6" d="M66.55,104.05a25.07,25.07,0,0,0-.21-3.09l-.56,0a26,26,0,0,1,.24,3.37,20.07,20.07,0,0,1-.24,3.09l5.62,7.19a17,17,0,0,1-2.05,4.8l0,.45a16.76,16.76,0,0,0,2.55-5.56l-5.62-7.2A20.07,20.07,0,0,0,66.55,104.05Z"/><path class="cls-6" d="M41.39,62.79l3.45,8.43a22.36,22.36,0,0,1,2.81,1.35,29.63,29.63,0,0,1,2.82,1.9l.1-.54a28.07,28.07,0,0,0-2.41-1.61A22.47,22.47,0,0,0,45.34,71L41.9,62.54a17.25,17.25,0,0,0-6.13-.62l.07.36A19.94,19.94,0,0,1,41.39,62.79Z"/><path class="cls-6" d="M44.42,113l-2.88,3.72.36.34,2.92-3.78Z"/></g><path class="cls-2" d="M91.29,82.94c-11.54-6.66-20.89-22.79-20.89-36,0-4.91,1.3-8.71,3.51-11.23-6.33.46-10.61,5.76-10.61,14.71,0,13.23,9.35,29.36,20.89,36,7.24,4.19,13.61,3.61,17.35-.66A18.17,18.17,0,0,1,91.29,82.94Z"/><path class="cls-3" d="M111.59,78.57a39.77,39.77,0,0,0-.36-5.06l8.45-1.07a76,76,0,0,0-3.83-12.78l-9.62-2.91a67.72,67.72,0,0,0-6-10.33l2.31-9.71A76.79,76.79,0,0,0,93.33,27l-5.18,6.7a41.9,41.9,0,0,0-4.23-2.86,32.42,32.42,0,0,0-4.23-2L74.51,16.13a25.66,25.66,0,0,0-9.22-.93L67.6,27.57a13.29,13.29,0,0,0-6,3.42L52,22.79a25.06,25.06,0,0,0-3.83,8.36L56.61,42a30.9,30.9,0,0,0-.36,4.65,39.9,39.9,0,0,0,.36,5.06l-8.45,1.07A76,76,0,0,0,52,65.53l9.62,2.91a67.72,67.72,0,0,0,6,10.33l-2.31,9.71a77.5,77.5,0,0,0,9.22,9.71l5.18-6.7a41.9,41.9,0,0,0,4.23,2.86,32.42,32.42,0,0,0,4.23,2l5.18,12.68a25.68,25.68,0,0,0,9.22.93l-2.31-12.37a13.29,13.29,0,0,0,6-3.42l9.62,8.2A25.06,25.06,0,0,0,119.68,94l-8.45-10.82A30.9,30.9,0,0,0,111.59,78.57Zm-27.4,7.84c-11.54-6.66-20.89-22.79-20.89-36s9.35-18.57,20.89-11.91,20.89,22.79,20.89,36S95.72,93.08,84.19,86.41Z"/><polygon class="cls-2" points="87.78 24.16 82.6 11.48 74.51 16.13 79.69 28.81 87.78 24.16"/><path class="cls-4" d="M79.69,28.81a32.42,32.42,0,0,1,4.23,2,41.9,41.9,0,0,1,4.23,2.86L93.33,27h0s-.87-.55-1.32-.81a33.76,33.76,0,0,0-4.23-2Z"/><path class="cls-4" d="M82.6,11.48a25.85,25.85,0,0,0-9.21-.93l-8.1,4.65a25.66,25.66,0,0,1,9.22.93Z"/><path class="cls-4" d="M110.64,32.06a76.75,76.75,0,0,0-9.22-9.71L93.33,27a76.08,76.08,0,0,1,9.22,9.71Z"/><polygon class="cls-2" points="102.55 36.71 100.24 46.42 108.33 41.77 110.64 32.06 102.55 36.71"/><path class="cls-2" d="M100.24,46.42a67.72,67.72,0,0,1,6,10.33l8.09-4.65a67.72,67.72,0,0,0-6-10.33Z"/><polygon class="cls-4" points="106.23 56.75 115.85 59.66 123.94 55.01 114.32 52.1 106.23 56.75"/><path class="cls-2" d="M115.85,59.66a76,76,0,0,1,3.83,12.78l8.09-4.65A76,76,0,0,0,123.94,55Z"/><path class="cls-2" d="M67.6,27.57,66.93,24l-6.85-5.83L52,22.79,61.61,31A13.29,13.29,0,0,1,67.6,27.57Z"/><path class="cls-2" d="M119.68,94a25.06,25.06,0,0,1-3.83,8.36l8.09-4.64a25.12,25.12,0,0,0,3.83-8.37Z"/><path class="cls-2" d="M119.33,78.57a32.31,32.31,0,0,0,.35-4.65c0-.48,0-1-.05-1.48l-8.4,1.07a39.77,39.77,0,0,1,.36,5.06,30.9,30.9,0,0,1-.36,4.65Z"/><polygon class="cls-4" points="111.23 83.22 119.68 94.04 127.77 89.39 119.33 78.57 111.23 83.22"/><path class="cls-2" d="M106.23,94.2a13.29,13.29,0,0,1-6,3.42L102.55,110l8.09-4.65L109,96.57Z"/><path class="cls-4" d="M56.3,48l-8.14,4.78,8.45-1.07C56.45,50.43,56.36,49.2,56.3,48Z"/><path class="cls-2" d="M79.69,91.49l-5.18,6.7,8.15-4.64C81.66,92.91,80.66,92.23,79.69,91.49Z"/><g class="cls-5"><path class="cls-6" d="M66.62,28.13l0-.12c-.38.14-.75.32-1.12.5C65.85,28.38,66.22,28.23,66.62,28.13Z"/><path class="cls-6" d="M55.58,51.83l-7,.88c0,.14.07.28.09.41l7-.88C55.61,52.1,55.6,52,55.58,51.83Z"/><path class="cls-6" d="M102.09,37.24,99.79,47a68.1,68.1,0,0,1,6,10.32l9.62,2.91a77.11,77.11,0,0,1,3.73,12.38l1-.16a75.08,75.08,0,0,0-3.82-12.78l-9.62-2.91a67.72,67.72,0,0,0-6-10.33l2.3-9.71A76.72,76.72,0,0,0,93.74,27L93.42,28A76.88,76.88,0,0,1,102.09,37.24Z"/><path class="cls-6" d="M84.26,86.25c-11.54-6.66-20.89-22.79-20.89-36,0-5.85,1.83-10.14,4.87-12.54-3.51,2.26-5.66,6.76-5.66,13.1,0,13.24,9.35,29.37,20.88,36,5.83,3.36,11.09,3.66,14.88,1.44-.28.08-.57.14-.86.2C93.88,89.77,89.28,89.15,84.26,86.25Z"/><path class="cls-6" d="M101.8,97.2a13.17,13.17,0,0,0,3.8-2.13l-.35-.31A13.52,13.52,0,0,1,101.8,97.2Z"/><path class="cls-6" d="M61.31,31.2c-.35,0,0-.27.35-.56L52.4,22.75c-.26.36-.5.76-.07.81Z"/><path class="cls-7" d="M100,98.18,102.22,110c-.26,0,.25,0,.73-.07L100.67,97.7C100.21,97.88,99.74,98.05,100,98.18Z"/><path class="cls-6" d="M112,78.53a38.94,38.94,0,0,0-.32-4.65l-.84.07A39.77,39.77,0,0,1,111.2,79a30.9,30.9,0,0,1-.36,4.65l8.45,10.82a25.85,25.85,0,0,1-3.09,7.21l.06.68A24.91,24.91,0,0,0,120.08,94l-8.44-10.82A32.27,32.27,0,0,0,112,78.53Z"/><path class="cls-6" d="M74.16,16.47l5.18,12.68a32.42,32.42,0,0,1,4.23,2A41.79,41.79,0,0,1,87.8,34l.16-.8a39.59,39.59,0,0,0-3.63-2.43,33.76,33.76,0,0,0-4.23-2L74.92,16.09a25.92,25.92,0,0,0-9.22-.93l.1.53A30.26,30.26,0,0,1,74.16,16.47Z"/><path class="cls-6" d="M78.7,92.05l-4.33,5.6c.19.17.36.34.55.5l4.38-5.67Z"/></g><path class="cls-4" d="M134.3,92.52l-1-.25.79-3-8.78-11.25v-.19c.05-.63.08-1.24.09-1.85v-.43l9.29-1.18-1.33-6.54A81.82,81.82,0,0,0,129.28,54l-1.1-2.79-9.91-3-.1-.19c-1.07-2.06-2.24-4.08-3.49-6l-.12-.18,2.38-10-1.89-2.36a83.94,83.94,0,0,0-10-10.49l-5-4.36L94.44,22l-.37-.21c-.57-.31-1.16-.61-1.76-.9l-.17-.08L86.76,7.61,83.82,6.8A33.15,33.15,0,0,0,75,5.55v-1a34.24,34.24,0,0,1,9.07,1.29l3.42.94,5.42,13.27c.43.21.84.42,1.25.64L100,13.17l5.76,5.07a83.86,83.86,0,0,1,10.08,10.62L118,31.6l-2.4,10.07c1.19,1.85,2.31,3.78,3.33,5.74l10,3,1.28,3.25a83.51,83.51,0,0,1,4.19,14l1.53,7.6-9.5,1.2c0,.42,0,.85-.07,1.28l8.85,11.33Z"/><path class="cls-8" d="M11.84,58a.52.52,0,0,1-.21,0,.5.5,0,0,1-.24-.67c.3-.62.61-1.23.94-1.81a.5.5,0,0,1,.87.5q-.48.83-.9,1.74A.51.51,0,0,1,11.84,58Zm2.58-4.27a.49.49,0,0,1-.39-.8,20.1,20.1,0,0,1,1.32-1.56.5.5,0,0,1,.71,0,.49.49,0,0,1,0,.7c-.44.47-.86,1-1.26,1.49A.5.5,0,0,1,14.42,53.72Zm32.51-2.16a.57.57,0,0,1-.25-.06L46,51.09a.49.49,0,0,1-.19-.68.5.5,0,0,1,.68-.19l.72.41a.5.5,0,0,1-.25.93Zm-29-1.37a.5.5,0,0,1-.3-.9,17.45,17.45,0,0,1,1.69-1.16.5.5,0,1,1,.52.86,17,17,0,0,0-1.61,1.1A.47.47,0,0,1,17.94,50.19Zm25.61-.41a.54.54,0,0,1-.21-.05c-.61-.29-1.21-.56-1.81-.81a.49.49,0,0,1-.26-.65.49.49,0,0,1,.65-.27c.61.26,1.23.53,1.85.83a.5.5,0,0,1-.22,1ZM38.92,47.9a.47.47,0,0,1-.16,0q-.94-.32-1.89-.57a.5.5,0,0,1-.35-.61.49.49,0,0,1,.61-.35c.64.17,1.29.36,1.95.58a.5.5,0,0,1-.16,1Zm-16.65-.17a.48.48,0,0,1-.46-.32.49.49,0,0,1,.27-.65q1-.37,2-.66a.5.5,0,0,1,.27,1,15.9,15.9,0,0,0-1.84.62A.65.65,0,0,1,22.27,47.73Zm11.8-1H34c-.65-.11-1.3-.2-2-.25a.51.51,0,0,1-.45-.55.52.52,0,0,1,.55-.45c.66.06,1.34.15,2,.26a.5.5,0,0,1-.09,1Zm-7-.19a.5.5,0,0,1-.49-.44A.5.5,0,0,1,27,45.5c.67-.08,1.35-.13,2-.16a.51.51,0,0,1,.51.49.49.49,0,0,1-.48.51c-.66,0-1.31.08-1.95.16Z"/><path class="cls-8" d="M14.45,99.32A.49.49,0,0,1,14,99c-.26-.62-.51-1.25-.74-1.87a.5.5,0,1,1,.93-.36c.24.62.48,1.23.73,1.85a.49.49,0,0,1-.27.65A.46.46,0,0,1,14.45,99.32Zm-1.76-4.68a.49.49,0,0,1-.47-.34q-.33-1-.63-1.92a.5.5,0,0,1,.33-.62.51.51,0,0,1,.63.33c.19.63.4,1.26.62,1.89a.51.51,0,0,1-.32.63A.41.41,0,0,1,12.69,94.64Zm-1.47-4.78a.5.5,0,0,1-.48-.37c-.18-.65-.34-1.3-.5-1.95a.5.5,0,0,1,.36-.61.51.51,0,0,1,.61.37c.15.64.32,1.28.5,1.93a.5.5,0,0,1-.36.61ZM10.07,85a.5.5,0,0,1-.49-.4c-.13-.66-.25-1.32-.37-2A.51.51,0,0,1,9.62,82a.51.51,0,0,1,.58.41q.17,1,.36,2a.49.49,0,0,1-.39.59Zm-.8-4.94a.5.5,0,0,1-.49-.44q-.12-1-.21-2A.5.5,0,0,1,9,77.06a.52.52,0,0,1,.55.46c0,.65.12,1.31.2,2a.5.5,0,0,1-.43.56Zm-.39-5a.51.51,0,0,1-.5-.49c0-.6,0-1.21,0-1.8a.5.5,0,0,1,.5-.5.5.5,0,0,1,.5.5q0,.87,0,1.77a.5.5,0,0,1-.48.52Z"/><path class="cls-8" d="M65.48,144.15a.5.5,0,0,1,0-1c.66,0,1.31-.12,1.94-.22a.5.5,0,0,1,.57.42.49.49,0,0,1-.41.57c-.66.11-1.34.18-2,.23Zm-3,0h0c-.66,0-1.34-.11-2-.2a.51.51,0,0,1-.43-.57.51.51,0,0,1,.57-.42c.65.09,1.31.15,2,.19a.52.52,0,0,1,.47.53A.5.5,0,0,1,62.49,144.14Zm-4.94-.77h-.11c-.65-.16-1.3-.34-2-.55a.49.49,0,0,1-.33-.62.5.5,0,0,1,.63-.33c.63.2,1.27.37,1.89.53a.5.5,0,0,1,.37.6A.5.5,0,0,1,57.55,143.37Zm12.83-.14a.5.5,0,0,1-.15-1c.61-.2,1.23-.43,1.82-.69a.5.5,0,1,1,.4.91,19.23,19.23,0,0,1-1.91.73A.44.44,0,0,1,70.38,143.23Zm-17.58-1.4a.63.63,0,0,1-.19,0c-.61-.25-1.23-.52-1.86-.8a.49.49,0,0,1-.24-.66.5.5,0,0,1,.66-.25c.61.28,1.21.54,1.82.78a.5.5,0,0,1-.19,1Zm22.08-.75a.47.47,0,0,1-.42-.22.5.5,0,0,1,.14-.69c.54-.36,1.06-.75,1.56-1.16a.49.49,0,0,1,.7.06.51.51,0,0,1-.06.71A17.55,17.55,0,0,1,75.15,141,.45.45,0,0,1,74.88,141.08Zm-26.6-1.37a.53.53,0,0,1-.24-.06c-.45-.24-.9-.49-1.36-.76a.5.5,0,1,1,.51-.86c.44.26.88.5,1.32.74a.5.5,0,0,1,.21.68A.52.52,0,0,1,48.28,139.71Zm30.34-1.91a.54.54,0,0,1-.33-.12.51.51,0,0,1,0-.71c.42-.48.83-1,1.21-1.52a.5.5,0,0,1,.7-.12.51.51,0,0,1,.11.7c-.4.56-.83,1.09-1.27,1.6A.52.52,0,0,1,78.62,137.8Zm2.82-4.11a.46.46,0,0,1-.23-.06A.5.5,0,0,1,81,133c.31-.58.59-1.17.85-1.77a.52.52,0,0,1,.66-.26.51.51,0,0,1,.26.66c-.27.62-.57,1.24-.88,1.84A.52.52,0,0,1,81.44,133.69Zm1.92-4.61a.39.39,0,0,1-.15,0,.51.51,0,0,1-.33-.63c.19-.61.37-1.24.53-1.89a.51.51,0,0,1,.61-.37.5.5,0,0,1,.36.61q-.24,1-.54,1.95A.5.5,0,0,1,83.36,129.08Zm1.13-4.86h-.08a.49.49,0,0,1-.41-.57c.1-.64.19-1.29.26-2a.5.5,0,1,1,1,.11c-.07.68-.16,1.35-.26,2A.51.51,0,0,1,84.49,124.22Zm.49-5h0a.5.5,0,0,1-.48-.52c0-.65,0-1.31,0-2a.5.5,0,0,1,.5-.5.5.5,0,0,1,.5.5c0,.68,0,1.36,0,2A.51.51,0,0,1,85,119.25Z"/><path class="cls-8" d="M62.08,134.1c-4.25,0-9-1.43-13.91-4.27C31.3,120.09,17.57,96.4,17.57,77c0-9.5,3.24-16.58,9.14-19.94l.5.87c-5.57,3.18-8.64,10-8.64,19.07,0,19,13.5,42.34,30.1,51.92,9.4,5.43,18,5.51,23.64.22l.69.72A15.49,15.49,0,0,1,62.08,134.1Z"/><path class="cls-9" d="M74.46,129.89c0,.93-.69,1.34-1.44.91a3,3,0,0,1-1.27-2.47c0-.94.69-1.35,1.43-.92A3,3,0,0,1,74.46,129.89Z"/><path class="cls-9" d="M26,60.46a.57.57,0,0,1-.25-.06.51.51,0,0,1-.18-.69l1.15-2-2.88.42a.51.51,0,0,1-.57-.43.5.5,0,0,1,.43-.56l3.91-.56a.51.51,0,0,1,.48.21.49.49,0,0,1,0,.53l-1.68,2.88A.49.49,0,0,1,26,60.46Z"/><polygon class="cls-10" points="92.52 74.55 82.84 65.98 80.28 53.4 87.33 49.33 97.01 57.89 99.61 70.5 92.52 74.55"/><polygon class="cls-11" points="92.52 74.55 82.84 65.98 97.01 57.89 99.61 70.5 92.52 74.55"/><path class="cls-12" d="M139.42,132.77,114.56,89.88l-7.67-30.22a11,11,0,0,0-3.31-5.47L93.8,45.4A3.58,3.58,0,0,0,89.65,45l-3,1.65,1.21,1a3.55,3.55,0,0,0,1.17,3.11l7.22,6.39L100,75.42l-10.3,5.87L75.68,68.84l-1.94-9.42A3.58,3.58,0,0,0,68.46,57l-3,1.65L66.67,60a3.16,3.16,0,0,0,.07.86l2.72,12.73a10.87,10.87,0,0,0,3.1,5.6L95,101l24.86,42.88c4.51,7.78,11.37,12.58,16.64,12.14l-.09.79,3-1.66h0C144.81,152.09,144.81,142.06,139.42,132.77ZM133.7,145.3c-2.21,1.26-5.79-.81-8-4.62s-2.21-7.93,0-9.19,5.79.81,8,4.62S135.91,144,133.7,145.3Z"/><path class="cls-13" d="M86.67,46.61h0a3.57,3.57,0,0,0-.59,5.77l7.21,6.38,3.77,18.31L86.77,82.94,72.71,70.5l-1.94-9.42a3.58,3.58,0,0,0-5.28-2.39h0a3.58,3.58,0,0,0-1.73,3.86l2.72,12.72a11.08,11.08,0,0,0,3.1,5.61l22.48,21.78,24.87,42.89c5.39,9.29,14.13,14.34,19.52,11.27h0c5.39-3.08,5.39-13.1,0-22.4L111.58,91.53l-7.67-30.21a11,11,0,0,0-3.31-5.48l-9.78-8.78A3.56,3.56,0,0,0,86.67,46.61ZM130.73,147c-2.21,1.26-5.8-.81-8-4.62s-2.21-7.93,0-9.19,5.8.81,8,4.63S132.94,145.69,130.73,147Z"/><path class="cls-14" d="M123.27,133l0,0a3.13,3.13,0,0,0-.6.24c-2.21,1.26-2.21,5.38,0,9.19s5.74,5.85,8,4.65c-2.22.64-5.39-1.38-7.41-4.87C121.06,138.41,121.06,134.29,123.27,133Z"/><path class="cls-14" d="M70.77,61.19l1.94,9.42L86.77,83.05l.48-.28-14-12.38L71.32,61a3.58,3.58,0,0,0-5.08-2.49A3.58,3.58,0,0,1,70.77,61.19Z"/><path class="cls-14" d="M137,134.31,112.13,91.42l-7.67-30.21a11,11,0,0,0-3.31-5.48L91.37,47a3.54,3.54,0,0,0-4-.53,3.54,3.54,0,0,1,3.42.75L100.6,56a11,11,0,0,1,3.31,5.48l7.67,30.21,24.87,42.89c5.39,9.3,5.39,19.32,0,22.4h0a5.6,5.6,0,0,1-.55.27,6.36,6.36,0,0,0,1.1-.49h0C142.39,153.63,142.39,143.6,137,134.31Z"/><polygon class="cls-15" points="85.46 78.58 75.78 70.02 73.19 57.41 80.27 53.37 89.96 61.94 92.55 74.54 85.46 78.58"/></g></g></svg>