<svg id="Layer_1" data-name="Layer 1" xmlns="http://www.w3.org/2000/svg" xmlns:xlink="http://www.w3.org/1999/xlink" viewBox="0 0 250.2 261.68"><defs><style>.cls-1{fill:#7dc3ea;}.cls-2{fill:#fff;}.cls-3{fill:url(#Áåçûìÿííûé_ãðàäèåíò_18);}.cls-4{fill:url(#Áåçûìÿííûé_ãðàäèåíò_9);}.cls-5{fill:#5793ce;}.cls-6{fill:url(#Áåçûìÿííûé_ãðàäèåíò_441);}.cls-12,.cls-7{fill:#173d7a;}.cls-8{fill:#396caa;}.cls-9{fill:#06033e;opacity:0.3;}.cls-10{fill:#d4ecff;}.cls-11{fill:#ff2c9c;}.cls-12{opacity:0.5;}.cls-13{fill:#d1ebff;}</style><radialGradient id="Áåçûìÿííûé_ãðàäèåíò_18" cx="98.14" cy="113.55" r="121.15" gradientUnits="userSpaceOnUse"><stop offset="0" stop-color="#396caa"/><stop offset="1" stop-color="#274f89"/></radialGradient><linearGradient id="Áåçûìÿííûé_ãðàäèåíò_9" x1="60.04" y1="27.6" x2="173" y2="96.43" gradientUnits="userSpaceOnUse"><stop offset="0" stop-color="#d4ecff"/><stop offset="0.24" stop-color="#d0eafe"/><stop offset="0.46" stop-color="#c5e2f9"/><stop offset="0.67" stop-color="#b2d6f2"/><stop offset="0.88" stop-color="#98c4e7"/><stop offset="1" stop-color="#86b8e0"/></linearGradient><linearGradient id="Áåçûìÿííûé_ãðàäèåíò_441" x1="-298.95" y1="1401.58" x2="-232.56" y2="1386.54" gradientTransform="matrix(0.87, 0.5, 0, 1.15, 315.65, -1341.67)" gradientUnits="userSpaceOnUse"><stop offset="0" stop-color="#3919bb"/><stop offset="1" stop-color="#6507fa"/></linearGradient></defs><title>vmware_esx</title><path class="cls-1" d="M116.9,257,59,223.5c-2.12-1.23-1.85-3.37.6-4.78L121,183.17c2.45-1.41,6.16-1.57,8.28-.34l57.93,33.45c2.13,1.22,1.86,3.37-.59,4.78l-61.41,35.55C122.73,258,119,258.18,116.9,257Z"/><path class="cls-2" d="M120.51,246a9.12,9.12,0,0,1-4.47-1.05L58.11,211.46a4.16,4.16,0,0,1-2.3-3.56,5.07,5.07,0,0,1,2.89-4.2l61.4-35.54c3-1.72,7.37-1.87,10-.35L188,201.26a4.17,4.17,0,0,1,2.3,3.57,5.07,5.07,0,0,1-2.89,4.19L126,244.56A11.25,11.25,0,0,1,120.51,246Zm-2.75-4c1.59.92,4.66.76,6.57-.34l61.4-35.54c.86-.5,1.17-1,1.17-1.22s-.18-.36-.57-.59l-57.94-33.45c-1.59-.92-4.66-.76-6.57.34l-61.4,35.55c-.86.49-1.17,1-1.17,1.22s.18.36.57.59Z"/><path class="cls-3" d="M121.08,80.88s-31.81,3-51,4.5L120.93,230.1l67.21-38.77,0,0,.12-.07h0a3.75,3.75,0,0,0,1.37-3.32V46.48A10.22,10.22,0,0,0,188.5,42Z"/><path class="cls-4" d="M185.5,38.52,126.39,4.4a2.66,2.66,0,0,0-2.69-.24h0L56.22,43.09,59.4,54.86l16.92,48.19,3.18,1.84L188.5,42A8.32,8.32,0,0,0,185.5,38.52Z"/><path class="cls-5" d="M118.07,230,59,195.84c-2.3-1.33-4.16-4.89-4.16-8V46.44c0-3.06,1.86-4.47,4.16-3.14l59.11,34.12c2.3,1.33,4.16,4.89,4.16,8V226.82C122.23,229.88,120.37,231.29,118.07,230Z"/><path class="cls-2" d="M119.34,76.71,60.23,42.59a2.46,2.46,0,0,0-3.28.24,3,3,0,0,1,2,.47l59.11,34.12c2.3,1.33,4.16,4.89,4.16,8V226.82a4.32,4.32,0,0,1-.89,2.91c1.29-.21,2.16-1.53,2.16-3.62V84.66C123.5,81.6,121.63,78,119.34,76.71Z"/><path class="cls-6" d="M114.35,221.45,62.68,191.62c-2-1.16-3.64-4.27-3.64-7V53.3c0-2.68,1.63-3.91,3.64-2.75l51.67,29.84c2,1.16,3.64,4.27,3.64,7V218.7C118,221.38,116.36,222.61,114.35,221.45Z"/><path class="cls-6" d="M114.35,221.45,62.68,191.62c-2-1.16-3.64-4.27-3.64-7V53.3c0-2.68,1.63-3.91,3.64-2.75l51.67,29.84c2,1.16,3.64,4.27,3.64,7V218.7C118,221.38,116.36,222.61,114.35,221.45Z"/><path class="cls-7" d="M114.35,221.45,62.68,191.62c-2-1.16-3.64-4.27-3.64-7V53.3c0-2.68,1.63-3.91,3.64-2.75l51.67,29.84c2,1.16,3.64,4.27,3.64,7V218.7C118,221.38,116.36,222.61,114.35,221.45Z"/><path class="cls-8" d="M116,220.46,64.37,190.63c-2-1.16-3.64-4.28-3.64-7V52.31a4.19,4.19,0,0,1,.52-2.19C60,50.11,59,51.3,59,53.3V184.67c0,2.68,1.63,5.79,3.64,7l51.67,29.83c1.32.77,2.48.49,3.12-.56A2.92,2.92,0,0,1,116,220.46Z"/><path class="cls-7" d="M114.35,161.14l-19.2-11.09L64.51,167.74,118,198.61V168.09C118,165.41,116.36,162.3,114.35,161.14Z"/><path class="cls-7" d="M114.35,134.22l-19.2-11.09L64.51,140.82,118,171.69V141.17C118,138.49,116.36,135.38,114.35,134.22Z"/><path class="cls-7" d="M114.35,107.3,95.15,96.22,64.51,113.9,118,144.77V114.26C118,111.58,116.36,108.46,114.35,107.3Z"/><path class="cls-7" d="M114.35,80.39,95.15,69.3,64.51,87,118,117.86V87.34C118,84.66,116.36,81.55,114.35,80.39Z"/><path class="cls-7" d="M114.35,80.39,71.83,55.84l-7.32,4.22L118,90.94v-3.6C118,84.66,116.36,81.55,114.35,80.39Z"/><polygon class="cls-5" points="117.99 90.94 64.52 60.06 64.52 77.08 117.99 107.95 117.99 90.94"/><polygon class="cls-5" points="117.99 117.86 64.52 86.98 64.52 104 117.99 134.87 117.99 117.86"/><polygon class="cls-5" points="117.99 144.77 64.52 113.9 64.52 130.91 117.99 161.79 117.99 144.77"/><polygon class="cls-5" points="117.99 171.69 64.52 140.82 64.52 157.83 117.99 188.71 117.99 171.69"/><polygon class="cls-5" points="117.99 198.61 64.52 167.74 64.52 184.75 117.99 215.62 117.99 198.61"/><path class="cls-7" d="M113.27,101.89,73,78.63a4.9,4.9,0,0,1-2.06-3.93V70.14c0-1.51.92-2.21,2.06-1.55l40.27,23.25a4.93,4.93,0,0,1,2.06,3.94v4.55C115.33,101.85,114.41,102.54,113.27,101.89Z"/><path class="cls-9" d="M75,77.76A4.93,4.93,0,0,1,73,73.83V69.27a2.57,2.57,0,0,1,.08-.65l0,0c-1.14-.66-2.06,0-2.06,1.55V74.7A4.9,4.9,0,0,0,73,78.63l40.27,23.26a1.24,1.24,0,0,0,2-.9Z"/><path class="cls-2" d="M100.63,89.4l-24.23-14A1.74,1.74,0,0,1,75.67,74h0c0-.53.33-.78.73-.55l24.23,14a1.74,1.74,0,0,1,.73,1.38h0C101.36,89.39,101,89.63,100.63,89.4Z"/><path class="cls-7" d="M113.27,128.64,73,105.39a4.93,4.93,0,0,1-2.06-3.94V96.9c0-1.52.92-2.22,2.06-1.56l40.27,23.25a4.93,4.93,0,0,1,2.06,3.94v4.55C115.33,128.6,114.41,129.3,113.27,128.64Z"/><path class="cls-9" d="M75,104.51A4.9,4.9,0,0,1,73,100.58V96a2.63,2.63,0,0,1,.08-.65l0,0c-1.14-.66-2.06,0-2.06,1.56v4.55A4.93,4.93,0,0,0,73,105.39l40.27,23.25a1.24,1.24,0,0,0,2-.9Z"/><path class="cls-2" d="M100.63,116.15l-24.23-14a1.74,1.74,0,0,1-.73-1.39h0c0-.53.33-.77.73-.54l24.23,14a1.74,1.74,0,0,1,.73,1.38h0C101.36,116.14,101,116.38,100.63,116.15Z"/><path class="cls-7" d="M113.27,155.64,73,132.39a4.93,4.93,0,0,1-2.06-3.94V123.9c0-1.52.92-2.22,2.06-1.56l40.27,23.25a4.93,4.93,0,0,1,2.06,3.94v4.55C115.33,155.6,114.41,156.3,113.27,155.64Z"/><path class="cls-9" d="M75,131.51A4.9,4.9,0,0,1,73,127.58V123a2.63,2.63,0,0,1,.08-.65l0,0c-1.14-.66-2.06,0-2.06,1.56v4.55A4.93,4.93,0,0,0,73,132.39l40.27,23.25a1.24,1.24,0,0,0,2-.9Z"/><path class="cls-10" d="M100.63,143.15l-24.23-14a1.74,1.74,0,0,1-.73-1.38h0c0-.54.33-.78.73-.55l24.23,14a1.74,1.74,0,0,1,.73,1.39h0C101.36,143.14,101,143.38,100.63,143.15Z"/><path class="cls-7" d="M113.27,182.89,73,159.64a4.93,4.93,0,0,1-2.06-3.94v-4.55c0-1.52.92-2.22,2.06-1.56l40.27,23.25a4.93,4.93,0,0,1,2.06,3.94v4.56C115.33,182.85,114.41,183.55,113.27,182.89Z"/><path class="cls-9" d="M75,158.77A4.93,4.93,0,0,1,73,154.83v-4.56a2.63,2.63,0,0,1,.08-.65l0,0c-1.14-.66-2.06,0-2.06,1.56v4.55A4.93,4.93,0,0,0,73,159.64l40.27,23.25a1.24,1.24,0,0,0,2-.9Z"/><path class="cls-11" d="M100.63,170.4l-24.23-14a1.74,1.74,0,0,1-.73-1.38h0c0-.54.33-.78.73-.55l24.23,14a1.74,1.74,0,0,1,.73,1.39h0C101.36,170.39,101,170.63,100.63,170.4Z"/><path class="cls-7" d="M113.27,209.6,73,186.35a4.93,4.93,0,0,1-2.06-3.94v-4.55c0-1.52.92-2.22,2.06-1.56l40.27,23.26a4.9,4.9,0,0,1,2.06,3.93v4.56C115.33,209.56,114.41,210.26,113.27,209.6Z"/><path class="cls-9" d="M75,185.48A4.93,4.93,0,0,1,73,181.54V177a2.65,2.65,0,0,1,.08-.66l0,0c-1.14-.66-2.06,0-2.06,1.56v4.55A4.93,4.93,0,0,0,73,186.35l40.27,23.25a1.24,1.24,0,0,0,2-.9Z"/><path class="cls-10" d="M100.63,197.11l-24.23-14a1.74,1.74,0,0,1-.73-1.38h0c0-.54.33-.78.73-.55l24.23,14a1.74,1.74,0,0,1,.73,1.39h0C101.36,197.1,101,197.35,100.63,197.11Z"/><polygon class="cls-12" points="64.52 60.06 68.72 62.49 68.72 79.51 64.52 77.08 64.52 60.06"/><polygon class="cls-12" points="64.52 86.98 68.72 89.41 68.72 106.43 64.52 104 64.52 86.98"/><polygon class="cls-12" points="64.52 113.9 68.72 116.33 68.72 133.34 64.52 130.91 64.52 113.9"/><polygon class="cls-12" points="64.52 140.82 68.72 143.25 68.72 160.26 64.52 157.83 64.52 140.82"/><polygon class="cls-12" points="64.52 167.74 68.72 170.17 68.72 187.18 64.52 184.75 64.52 167.74"/><ellipse class="cls-10" cx="104.56" cy="90.59" rx="0.7" ry="1.21" transform="matrix(0.87, -0.5, 0.5, 0.87, -31.29, 64.43)"/><path class="cls-11" d="M109,93.17c0,.54-.38.76-.85.49a1.88,1.88,0,0,1-.85-1.48c0-.54.38-.76.85-.49A1.88,1.88,0,0,1,109,93.17Z"/><path class="cls-10" d="M112.64,95.25c0,.55-.38.77-.85.5a1.89,1.89,0,0,1-.86-1.48c0-.54.38-.76.86-.49A1.87,1.87,0,0,1,112.64,95.25Z"/><path class="cls-11" d="M105.41,118c0,.55-.38.77-.85.5a1.92,1.92,0,0,1-.86-1.48c0-.54.39-.76.86-.49A1.87,1.87,0,0,1,105.41,118Z"/><path class="cls-10" d="M109,120.07c0,.54-.38.77-.85.49a1.87,1.87,0,0,1-.85-1.47c0-.55.38-.77.85-.5A1.91,1.91,0,0,1,109,120.07Z"/><path class="cls-2" d="M112.64,122.16c0,.54-.38.76-.85.49a1.86,1.86,0,0,1-.86-1.48c0-.54.38-.76.86-.49A1.88,1.88,0,0,1,112.64,122.16Z"/><path class="cls-2" d="M105.41,145.09c0,.55-.38.77-.85.49a1.89,1.89,0,0,1-.86-1.47c0-.55.39-.77.86-.49A1.87,1.87,0,0,1,105.41,145.09Z"/><path class="cls-11" d="M109,147.18c0,.54-.38.76-.85.49a1.88,1.88,0,0,1-.85-1.48c0-.54.38-.76.85-.49A1.89,1.89,0,0,1,109,147.18Z"/><path class="cls-2" d="M112.64,149.27c0,.54-.38.76-.85.49a1.86,1.86,0,0,1-.86-1.48c0-.54.38-.76.86-.49A1.88,1.88,0,0,1,112.64,149.27Z"/><path class="cls-2" d="M105.41,171.81c0,.54-.38.76-.85.49a1.9,1.9,0,0,1-.86-1.48c0-.54.39-.76.86-.49A1.88,1.88,0,0,1,105.41,171.81Z"/><path class="cls-10" d="M109,173.89c0,.55-.38.77-.85.49a1.87,1.87,0,0,1-.85-1.47c0-.55.38-.77.85-.49A1.87,1.87,0,0,1,109,173.89Z"/><path class="cls-10" d="M112.64,176c0,.54-.38.76-.85.49a1.86,1.86,0,0,1-.86-1.48c0-.54.38-.76.86-.49A1.89,1.89,0,0,1,112.64,176Z"/><path class="cls-2" d="M105.41,198.88c0,.55-.38.77-.85.49a1.89,1.89,0,0,1-.86-1.47c0-.55.39-.77.86-.49A1.87,1.87,0,0,1,105.41,198.88Z"/><path class="cls-11" d="M109,201c0,.54-.38.76-.85.49a1.88,1.88,0,0,1-.85-1.48c0-.54.38-.76.85-.49A1.89,1.89,0,0,1,109,201Z"/><path class="cls-10" d="M112.64,203.06c0,.54-.38.76-.85.49a1.86,1.86,0,0,1-.86-1.48c0-.54.38-.76.86-.49A1.88,1.88,0,0,1,112.64,203.06Z"/><path class="cls-7" d="M131.13,210.85V90.4l.25-.14L181.72,61.2V181.64l-.25.14Zm1-119.87V209.12l48.59-28.05V62.93Z"/><path class="cls-7" d="M168.64,115.39l-22.57,13c-1.51.88-2.74,0-2.74-2.07V113.83a6.57,6.57,0,0,1,2.74-5.24l22.57-13c1.52-.88,2.75,0,2.75,2.07v12.51A6.57,6.57,0,0,1,168.64,115.39Z"/><path class="cls-5" d="M169.19,95.31a3.62,3.62,0,0,1,.2,1.26v12.51a6.58,6.58,0,0,1-2.74,5.25l-22.57,13a2.36,2.36,0,0,1-.55.24,1.59,1.59,0,0,0,2.54.82l22.57-13a6.57,6.57,0,0,0,2.75-5.25V97.63C171.39,95.86,170.44,94.93,169.19,95.31Z"/><path class="cls-2" d="M164.52,107.85c.42-.24.76,0,.76.44v2.85a1.67,1.67,0,0,1-.76,1.31c-.42.24-.75,0-.75-.44v-2.85A1.66,1.66,0,0,1,164.52,107.85Z"/><path class="cls-10" d="M161.28,110.08c.42-.24.76,0,.76.44V113a1.67,1.67,0,0,1-.76,1.31c-.41.24-.75,0-.75-.44v-2.49A1.69,1.69,0,0,1,161.28,110.08Z"/><path class="cls-11" d="M158.05,109.17c.41-.25.75,0,.75.43v5.28a1.69,1.69,0,0,1-.75,1.31c-.42.24-.76,0-.76-.44v-5.28A1.65,1.65,0,0,1,158.05,109.17Z"/><path class="cls-10" d="M154.81,108c.41-.24.75,0,.75.44v8.32a1.69,1.69,0,0,1-.75,1.31c-.42.24-.76,0-.76-.44V109.3A1.67,1.67,0,0,1,154.81,108Z"/><path class="cls-10" d="M151.57,110.74c.42-.25.76,0,.76.43v7.45a1.67,1.67,0,0,1-.76,1.31c-.42.24-.76,0-.76-.44V112A1.65,1.65,0,0,1,151.57,110.74Z"/><path class="cls-2" d="M148.33,116c.42-.24.76-.05.76.43v4a1.69,1.69,0,0,1-.76,1.31c-.42.24-.75,0-.75-.44v-4A1.65,1.65,0,0,1,148.33,116Z"/><path class="cls-11" d="M163.78,106.41c0,.48.33.67.74.43a1.62,1.62,0,0,0,.74-1.28c0-.48-.33-.67-.74-.43A1.62,1.62,0,0,0,163.78,106.41Z"/><ellipse class="cls-2" cx="164.52" cy="103.31" rx="1.05" ry="0.61" transform="translate(-7.21 194.12) rotate(-60)"/><polygon class="cls-13" points="155.3 247.21 154.81 246.34 194.41 223.95 194.41 144.15 195.41 144.15 195.41 224.53 155.3 247.21"/></svg>