<svg id="Layer_1" data-name="Layer 1" xmlns="http://www.w3.org/2000/svg" viewBox="0 0 134.52 150.97"><defs><style>.cls-1{fill:#d1ebff;}.cls-2{fill:#a8cff0;}.cls-3{fill:#72b5e8;}.cls-4{fill:#084c94;}.cls-5{fill:#001a46;}.cls-6{fill:#0ba19f;}.cls-7{fill:#0fbab8;}.cls-8{fill:#3ecfcd;}.cls-9{fill:#fff;}.cls-10{fill:#f76195;}.cls-11{fill:#eb4680;}</style></defs><title>vmware_stability</title><path class="cls-1" d="M92.85,134.61l-.45-.89c19.35-9.75,32.13-16.2,34.76-53.25L128,51.18l-2.2-1.24c-14.78-8.36-29-22.45-41.23-40.74l-.4-.6-2-1.17-1.34.46A35,35,0,0,1,69.34,9.77v-1A34.1,34.1,0,0,0,80.53,7l1.77-.62,2.62,1.52.53.79c12.1,18.17,26.24,32.15,40.88,40.43l2.73,1.54-.9,29.84C125.49,118.16,112.51,124.7,92.85,134.61Z"/><path class="cls-2" d="M113.81,60.1c-15-8.48-29.66-23-41.95-41.39l-.16-.09c-12.29,4.25-26.95,1.79-41.94-7l-.58-.34.81,28c2.85,43.43,17.66,62.33,41.5,102.7l.58.34c23.84-12.85,38.65-14.65,41.5-54.79l.81-27.08Z"/><path class="cls-1" d="M122.26,53.66c-15-8.48-29.65-22.95-41.94-41.39l-.16-.1c-12.29,4.25-26.95,1.8-41.94-7l-.58-.34-8.29,6.54.41.24c15,8.83,29.65,11.29,41.94,7l.16.09c12.29,18.44,27,32.91,42,41.39l.57.33-.81,27.08c-1.86,26.2-8.82,36.06-20,43.33,14-8.29,26.42-20.32,28.51-49.77L122.84,54Z"/><path class="cls-1" d="M122.84,54l-.58-.32c-15-8.48-29.65-22.95-41.94-41.39l-.16-.1L71.7,18.62l.16.09c12.29,18.44,27,32.91,42,41.39l.57.33Z"/><path class="cls-3" d="M114.38,60.43l-.81,27.08c-1.86,26.2-8.82,36.06-20,43.33,14-8.29,26.42-20.32,28.51-49.77L122.84,54Z"/><path class="cls-4" d="M68.82,123.58C50.31,92.89,41,77.44,38.76,43.75l-.51-17.69c11.88,5.38,23.27,7.09,33.53,5.05C82,45,93.43,56.44,105.32,64.79l-.52,17.09C102.56,113,93.25,117.68,74.74,127l-3,1.5Z"/><path class="cls-5" d="M76.26,125.67l-3,1.5-3-4.92c-18.5-30.7-27.81-46.14-30.06-79.84l-.45-15.66c-.52-.23-1-.45-1.57-.69l.51,17.69C41,77.44,50.31,92.89,68.82,123.58l3,4.93,3-1.5c7.55-3.81,13.57-6.84,18.21-11.21C88.54,119.48,83,122.27,76.26,125.67Z"/><polygon class="cls-5" points="52.89 64.23 67.52 96.09 93.32 69.01 81.38 58.15 67.52 81.51 60.98 65.8 52.89 64.23"/><polygon class="cls-6" points="30.56 68.28 48.51 107.36 80.15 74.15 65.51 60.82 48.51 89.48 40.48 70.21 30.56 68.28"/><polygon class="cls-7" points="27.88 70.24 45.83 109.32 77.47 76.11 62.83 62.78 45.83 91.44 37.8 72.17 27.88 70.24"/><polygon class="cls-6" points="80.15 74.15 77.47 76.11 45.83 109.32 48.51 107.36 80.15 74.15"/><polygon class="cls-8" points="30.56 68.28 27.88 70.24 37.8 72.17 40.48 70.21 30.56 68.28"/><polygon class="cls-8" points="77.47 76.11 62.83 62.78 65.51 60.82 80.15 74.15 77.47 76.11"/><polygon class="cls-9" points="37.83 71.74 27.88 70.24 37.8 72.17 40.48 70.21 37.83 71.74"/><polygon class="cls-9" points="77.47 76.11 62.83 62.78 77.51 75.57 80.15 74.15 77.47 76.11"/><path class="cls-9" d="M114.34,59.57c-15-8.48-29.65-23-41.94-41.39l-.17-.1C60,22.33,45.29,19.87,30.29,11l-.54.58c15,8.8,29.59,11.24,41.86,7l.17.09C84.06,37.15,98.72,51.62,113.72,60.1l.57.33-.81,27.08c-1.54,21.74-6.59,32.23-14.69,39.33,8.46-7.1,13.73-17.57,15.31-39.86l.81-27.09Z"/><path class="cls-10" d="M6.43,62.3a.5.5,0,0,1-.5-.5c0-.69,0-1.36,0-2a.5.5,0,1,1,1,0c0,.65,0,1.31,0,2A.5.5,0,0,1,6.43,62.3Zm.25-5h0a.49.49,0,0,1-.45-.54c.07-.69.16-1.36.25-2A.5.5,0,0,1,7,54.33a.49.49,0,0,1,.42.57c-.09.64-.18,1.29-.24,2A.52.52,0,0,1,6.68,57.31Zm.81-4.93-.11,0a.5.5,0,0,1-.38-.6c.16-.67.33-1.32.52-2a.5.5,0,1,1,1,.29c-.19.61-.35,1.25-.5,1.9A.51.51,0,0,1,7.49,52.38ZM9,47.61l-.19,0a.51.51,0,0,1-.27-.65c.26-.64.54-1.26.83-1.86a.5.5,0,0,1,.9.44c-.29.58-.56,1.18-.8,1.79A.5.5,0,0,1,9,47.61Zm2.3-4.43A.45.45,0,0,1,11,43.1a.5.5,0,0,1-.15-.69c.38-.58.78-1.14,1.2-1.66a.5.5,0,0,1,.78.62c-.39.5-.78,1-1.14,1.59A.5.5,0,0,1,11.28,43.18Zm3.19-3.83a.46.46,0,0,1-.36-.16.49.49,0,0,1,0-.7,18,18,0,0,1,1.56-1.33.5.5,0,1,1,.61.79c-.52.4-1,.82-1.49,1.27A.48.48,0,0,1,14.47,39.35Zm4-2.92a.5.5,0,0,1-.23-.94,19.62,19.62,0,0,1,1.85-.88.5.5,0,0,1,.38.93,16.6,16.6,0,0,0-1.76.83A.5.5,0,0,1,18.5,36.43Zm4.66-1.78a.5.5,0,0,1-.49-.38.51.51,0,0,1,.37-.61c.65-.16,1.33-.29,2-.39a.51.51,0,0,1,.56.43.5.5,0,0,1-.42.56c-.65.1-1.29.22-1.91.38Z"/><path class="cls-10" d="M63.3,136.67h0c-.66,0-1.34-.08-2-.16a.5.5,0,0,1-.44-.55.51.51,0,0,1,.56-.44c.66.07,1.32.12,2,.15a.49.49,0,0,1,.48.52A.5.5,0,0,1,63.3,136.67Zm-5-.65h-.1c-.65-.15-1.31-.31-2-.5a.5.5,0,0,1-.35-.61.51.51,0,0,1,.62-.35c.64.18,1.28.34,1.91.48a.49.49,0,0,1,.38.59A.5.5,0,0,1,58.34,136Zm-4.79-1.41a.51.51,0,0,1-.17,0c-.62-.23-1.25-.48-1.88-.75a.5.5,0,1,1,.39-.92c.62.26,1.23.5,1.83.73a.5.5,0,0,1-.17,1Zm-4.58-2a.44.44,0,0,1-.22,0c-.59-.3-1.19-.61-1.79-.94a.5.5,0,0,1-.19-.68.51.51,0,0,1,.68-.2c.59.33,1.17.64,1.75.93a.5.5,0,0,1,.22.67A.5.5,0,0,1,49,132.6Zm-4.35-2.46a.48.48,0,0,1-.26-.07c-.57-.36-1.13-.72-1.69-1.1a.51.51,0,0,1-.14-.7.49.49,0,0,1,.69-.13c.56.37,1.11.73,1.67,1.08a.5.5,0,0,1-.27.92Zm-4.12-2.82a.57.57,0,0,1-.3-.1c-.53-.4-1.07-.81-1.59-1.23a.51.51,0,0,1-.09-.71.52.52,0,0,1,.71-.08c.52.42,1,.82,1.57,1.22a.5.5,0,0,1-.3.9Zm-3.89-3.14a.5.5,0,0,1-.33-.12c-.5-.44-1-.89-1.5-1.34a.5.5,0,1,1,.67-.74c.49.45,1,.89,1.48,1.32A.51.51,0,0,1,37,124,.52.52,0,0,1,36.61,124.18Zm-3.67-3.4a.5.5,0,0,1-.35-.14c-.48-.47-1-1-1.42-1.43a.5.5,0,0,1,0-.71.49.49,0,0,1,.7,0c.46.48.93.95,1.4,1.42a.48.48,0,0,1,0,.7A.47.47,0,0,1,32.94,120.78Zm-3.45-3.62a.49.49,0,0,1-.37-.16c-.45-.5-.89-1-1.33-1.51a.5.5,0,1,1,.76-.65c.43.5.87,1,1.31,1.49a.49.49,0,0,1-.37.83Zm-3.23-3.81a.5.5,0,0,1-.39-.18c-.42-.52-.83-1-1.24-1.58a.5.5,0,0,1,.79-.61c.41.52.81,1,1.23,1.56a.51.51,0,0,1-.08.71A.5.5,0,0,1,26.26,113.35Zm-3-4a.51.51,0,0,1-.41-.2l-1.15-1.65a.49.49,0,0,1,.13-.69.49.49,0,0,1,.69.12c.38.55.76,1.1,1.15,1.63a.5.5,0,0,1-.12.7A.52.52,0,0,1,23.24,109.37Zm-2.81-4.13A.51.51,0,0,1,20,105c-.36-.56-.72-1.13-1.07-1.71a.49.49,0,0,1,.17-.68.5.5,0,0,1,.69.16c.34.57.7,1.13,1.05,1.69a.49.49,0,0,1-.15.69A.5.5,0,0,1,20.43,105.24ZM17.84,101a.5.5,0,0,1-.43-.25c-.34-.58-.66-1.17-1-1.75a.49.49,0,0,1,.2-.68.49.49,0,0,1,.67.2c.32.58.65,1.16,1,1.74a.51.51,0,0,1-.19.68A.54.54,0,0,1,17.84,101Zm-2.37-4.4a.5.5,0,0,1-.45-.28c-.3-.59-.6-1.2-.89-1.8a.5.5,0,1,1,.91-.43c.28.59.58,1.19.88,1.78a.52.52,0,0,1-.22.68A.64.64,0,0,1,15.47,96.56ZM13.33,92a.5.5,0,0,1-.46-.3c-.27-.62-.54-1.23-.79-1.85a.5.5,0,0,1,.27-.66.51.51,0,0,1,.65.27c.25.62.52,1.23.79,1.84a.52.52,0,0,1-.46.7Z"/><path class="cls-10" d="M46.08,119.43C29.49,109.85,16,86.56,16,67.52c0-9.3,3.17-16.24,8.92-19.57s13.51-2.6,21.67,2.12A48.72,48.72,0,0,1,54.63,56l-.66.75a47.84,47.84,0,0,0-7.89-5.78c-7.84-4.53-15.18-5.28-20.67-2.11S17,58.6,17,67.52c0,18.73,13.27,41.63,29.59,51.05Z"/><path class="cls-11" d="M48.35,120.05c-.05,1-.72,1.4-1.5,1a3.06,3.06,0,0,1-1.33-2.58c0-1,.72-1.41,1.5-1A3.1,3.1,0,0,1,48.35,120.05Z"/><path class="cls-10" d="M55.73,57.45l-4.42-1.11a.49.49,0,0,1-.36-.6.51.51,0,0,1,.6-.37l2.59.65-.93-2.49a.5.5,0,0,1,.3-.64.5.5,0,0,1,.64.29Z"/></svg>