<svg xmlns="http://www.w3.org/2000/svg" xmlns:xlink="http://www.w3.org/1999/xlink" viewBox="0 0 226 216"><defs><style>.cls-1{isolation:isolate;}.cls-2{fill:url(#linear-gradient);}.cls-3{fill:url(#linear-gradient-2);}.cls-4{fill:url(#linear-gradient-3);}.cls-5{fill:url(#linear-gradient-4);}.cls-6{opacity:0.45;mix-blend-mode:screen;fill:url(#linear-gradient-5);}.cls-7{fill:#efefef;}</style><linearGradient id="linear-gradient" x1="5.27" y1="116.3" x2="193.84" y2="-5.46" gradientUnits="userSpaceOnUse"><stop offset="0" stop-color="#ff0"/><stop offset="0.88" stop-color="#6cb33e"/></linearGradient><linearGradient id="linear-gradient-2" x1="21.88" y1="90.01" x2="240.87" y2="90.01" gradientUnits="userSpaceOnUse"><stop offset="0" stop-color="#ff0"/><stop offset="1" stop-color="#6cb33e"/></linearGradient><linearGradient id="linear-gradient-3" x1="50.87" y1="213.87" x2="166.96" y2="97.78" gradientUnits="userSpaceOnUse"><stop offset="0" stop-color="#0094d3"/><stop offset="1" stop-color="#003d79"/></linearGradient><linearGradient id="linear-gradient-4" x1="43.5" y1="182.98" x2="182.2" y2="44.28" gradientUnits="userSpaceOnUse"><stop offset="0" stop-color="#6cb33e"/><stop offset="1" stop-color="#0094d3"/></linearGradient><linearGradient id="linear-gradient-5" x1="136.71" y1="12.73" x2="236.6" y2="-51.76" gradientTransform="matrix(0.92, -0.38, 0.3, 0.72, -97.3, 127.74)" gradientUnits="userSpaceOnUse"><stop offset="0" stop-color="#ff0"/><stop offset="0.88" stop-color="#8cc63f"/></linearGradient></defs><title>vmware_esx</title><g class="cls-1"><g id="Layer_4" data-name="Layer 4"><path class="cls-2" d="M36.33,118.78c22.16,7.12,43.7,2,63.77-12.11,12.64-8.9,23.5-19.93,34.31-31S157.5,54,172.51,50.34a48.7,48.7,0,0,1,33,3.73A107.49,107.49,0,0,0,6.16,92.26C15.29,112.16,36.33,118.78,36.33,118.78Z"/><path class="cls-3" d="M35.33,126.81c22.3,8.27,44.52,4,65.64-9.5,13.31-8.51,24.9-19.29,36.43-30.09s24.54-21.08,40-24.16a49.71,49.71,0,0,1,35.42,6.42,107,107,0,0,0-7.38-15.41,48.7,48.7,0,0,0-33-3.73c-15,3.68-27.29,14.29-38.1,25.34s-21.67,22.09-34.31,31C80,120.79,58.49,125.9,36.33,118.78c0,0-21-6.62-30.17-26.52Q5.75,95,5.49,97.81C13.77,119,35.33,126.81,35.33,126.81Z"/><path class="cls-4" d="M184.27,126.45c-12,2.77-22.62,9.64-32.44,17.08s-19.16,15.6-29.91,21.61a89.31,89.31,0,0,1-63.16,8.91,89.47,89.47,0,0,1-47.1-28.73,107.51,107.51,0,0,0,205.5-12.81C208.21,125.38,195.51,123.85,184.27,126.45Z"/><path class="cls-5" d="M212.86,69.48a49.71,49.71,0,0,0-35.42-6.42c-15.5,3.08-28.51,13.36-40,24.16S114.28,108.8,101,117.31c-21.12,13.51-43.34,17.77-65.64,9.5,0,0-21.56-7.85-29.84-29C5.18,101.16,5,104.56,5,108a107.4,107.4,0,0,0,6.66,37.32,89.47,89.47,0,0,0,47.1,28.73,89.31,89.31,0,0,0,63.16-8.91c10.75-6,20.1-14.18,29.91-21.61s20.44-14.31,32.44-17.08c11.24-2.6,23.94-1.07,32.89,6.06a107.36,107.36,0,0,0-4.3-63Z"/><path class="cls-6" d="M50.51,81.84C63,80,73.18,73.39,81.13,63.54c5-6.2,8.74-12.87,12.46-19.55s8.25-13.47,15.32-18.11l.16-.1c5.91-3.82,5.22-10.87-1.25-11.89a70.64,70.64,0,0,0-37.77,4.94c-23,9.51-38.16,28.61-39.93,47.54-.91,9.73,8,16.8,19.71,15.55C50.26,81.88,50.51,81.84,50.51,81.84Z"/><g id="g188"><path id="path190" class="cls-7" d="M43,83.72A9.36,9.36,0,0,0,30.41,79,9.19,9.19,0,0,0,25.8,91.6l21.1,45.85c3.32,7.19,6.81,11,13.37,11,7,0,10.07-4.1,13.38-11,0,0,18.4-40.06,18.58-40.48a2.67,2.67,0,0,1,2.65-1.7,2.93,2.93,0,0,1,2.92,3v39.17c0,6,3.35,11,9.79,11s9.92-5,9.92-11V105.35c0-6.18,4.43-10.19,10.47-10.19s10,4.16,10,10.19v32.06c0,6,3.36,11,9.8,11s9.93-5,9.93-11V105.35c0-6.18,4.41-10.19,10.45-10.19s10.07,4.16,10.07,10.19v32.06c0,6,3.35,11,9.79,11s9.93-5,9.93-11V100.93c0-13.41-10.78-22.8-23.76-22.8a30.51,30.51,0,0,0-21.07,9c-4.31-5.59-10.26-9-20.32-9-10.62,0-19.92,9-19.92,9a23.8,23.8,0,0,0-17.74-9c-9.42,0-16.89,4.14-21.45,14.56L60.27,124.45Z"/></g></g></g></svg>