<svg xmlns="http://www.w3.org/2000/svg" xmlns:xlink="http://www.w3.org/1999/xlink" viewBox="0 0 215 216"><defs><style>.cls-1{isolation:isolate;}.cls-2{fill:url(#linear-gradient);}.cls-3{fill:url(#linear-gradient-2);}.cls-4{fill:url(#linear-gradient-3);}.cls-5{fill:url(#linear-gradient-4);}.cls-6{opacity:0.45;mix-blend-mode:screen;fill:url(#linear-gradient-5);}</style><linearGradient id="linear-gradient" x1="0.27" y1="117.3" x2="188.84" y2="-4.46" gradientUnits="userSpaceOnUse"><stop offset="0" stop-color="#ff0"/><stop offset="0.88" stop-color="#6cb33e"/></linearGradient><linearGradient id="linear-gradient-2" x1="16.88" y1="91.01" x2="235.87" y2="91.01" gradientUnits="userSpaceOnUse"><stop offset="0" stop-color="#ff0"/><stop offset="1" stop-color="#6cb33e"/></linearGradient><linearGradient id="linear-gradient-3" x1="45.87" y1="214.87" x2="161.96" y2="98.78" gradientUnits="userSpaceOnUse"><stop offset="0" stop-color="#0094d3"/><stop offset="1" stop-color="#003d79"/></linearGradient><linearGradient id="linear-gradient-4" x1="38.5" y1="183.98" x2="177.2" y2="45.28" gradientUnits="userSpaceOnUse"><stop offset="0" stop-color="#6cb33e"/><stop offset="1" stop-color="#0094d3"/></linearGradient><linearGradient id="linear-gradient-5" x1="151.24" y1="-126.71" x2="251.13" y2="-191.21" gradientTransform="matrix(0.92, -0.38, 0.3, 0.72, -74.38, 234.19)" gradientUnits="userSpaceOnUse"><stop offset="0" stop-color="#ff0"/><stop offset="0.88" stop-color="#8cc63f"/></linearGradient></defs><title>vmware_services_logo_icon</title><g class="cls-1"><g id="Layer_3" data-name="Layer 3"><path class="cls-2" d="M31.33,119.78c22.16,7.12,43.7,2,63.77-12.11,12.64-8.9,23.5-19.93,34.31-31S152.5,55,167.51,51.34a48.7,48.7,0,0,1,33,3.73A107.49,107.49,0,0,0,1.16,93.26C10.29,113.16,31.33,119.78,31.33,119.78Z"/><path class="cls-3" d="M30.33,127.81c22.3,8.27,44.52,4,65.64-9.5,13.31-8.51,24.9-19.29,36.43-30.09s24.54-21.08,40-24.16a49.71,49.71,0,0,1,35.42,6.42,107,107,0,0,0-7.38-15.41,48.7,48.7,0,0,0-33-3.73c-15,3.68-27.29,14.29-38.1,25.34s-21.67,22.09-34.31,31C75,121.79,53.49,126.9,31.33,119.78c0,0-21-6.62-30.17-26.52Q.76,96,.49,98.81C8.77,120,30.33,127.81,30.33,127.81Z"/><path class="cls-4" d="M179.27,127.45c-12,2.77-22.62,9.64-32.44,17.08s-19.16,15.6-29.91,21.61a89.31,89.31,0,0,1-63.16,8.91,89.47,89.47,0,0,1-47.1-28.73,107.51,107.51,0,0,0,205.5-12.81C203.21,126.38,190.51,124.85,179.27,127.45Z"/><path class="cls-5" d="M207.86,70.48a49.71,49.71,0,0,0-35.42-6.42c-15.5,3.08-28.51,13.36-40,24.16S109.28,109.8,96,118.31c-21.12,13.51-43.34,17.77-65.64,9.5,0,0-21.56-7.85-29.84-29C.18,102.16,0,105.56,0,109a107.4,107.4,0,0,0,6.66,37.32,89.47,89.47,0,0,0,47.1,28.73,89.31,89.31,0,0,0,63.16-8.91c10.75-6,20.1-14.18,29.91-21.61s20.44-14.31,32.44-17.08c11.24-2.6,23.94-1.07,32.89,6.06a107.36,107.36,0,0,0-4.3-63Z"/><path class="cls-6" d="M45.51,82.84C58,81,68.18,74.39,76.13,64.54c5-6.2,8.74-12.87,12.46-19.55s8.25-13.47,15.32-18.11l.16-.1c5.91-3.82,5.22-10.87-1.25-11.89a70.64,70.64,0,0,0-37.77,4.94c-23,9.51-38.16,28.61-39.93,47.54-.91,9.73,8,16.8,19.71,15.55C45.26,82.88,45.51,82.84,45.51,82.84Z"/></g></g></svg>